<?xml version="1.0" encoding="utf-8"?>
<!-- Generator: Adobe Illustrator 23.0.6, SVG Export Plug-In . SVG Version: 6.00 Build 0)  -->
<svg version="1.1" id="Layer_1" xmlns="http://www.w3.org/2000/svg" xmlns:xlink="http://www.w3.org/1999/xlink" x="0px" y="0px"
	 viewBox="0 0 590.85 106.88" style="enable-background:new 0 0 590.85 106.88;" xml:space="preserve">
<style type="text/css">
	.st0{fill:#231F20;}
	.st1{fill:#312F86;}
</style>
<g>
	<path class="st0" d="M412.55,92.53c-2.9-0.26-4.96-1.16-6.23-2.58c-1.11-1.21-1.64-3.11-1.64-5.75v-2c0-1.32,0.16-2.32,0.47-3.06
		c0.32-0.69,0.9-1.42,1.69-2.22l2.06-2.11c1.42-1.42,3.06-2,4.8-1.85h6.65l2.74,0.21c0.69,0.16,1.48,0.47,2.27,1l3.96,2.37
		l-2.53,4.48l-4.64-2l-2.16-0.42h-5.33c-0.58-0.05-1.05,0.11-1.42,0.48l-1.95,1.95c-0.37,0.32-0.53,0.69-0.47,1.11v2.11
		c-0.16,1.64,0.74,2.53,2.64,2.64l8.44,1.11c3.06,0.37,5.17,1.05,6.38,2.11c1.32,1.11,1.95,3.06,1.95,5.91v2
		c0.05,1.32-0.11,2.37-0.47,3.06c-0.32,0.74-0.84,1.48-1.64,2.22l-2.11,2.11c-1.42,1.43-3.01,2.06-4.8,1.9h-7.86l-2.74-0.21
		c-0.69-0.16-1.48-0.53-2.27-1l-3.96-2.37l2.53-4.49l4.7,1.95c0.58,0.32,1.32,0.47,2.11,0.47h6.59c0.58,0,1.05-0.16,1.37-0.53
		l1.95-1.9c0.37-0.32,0.53-0.69,0.47-1.16v-1.79c0.16-1.58-0.69-2.43-2.53-2.53V93.7v0.05L412.55,92.53z M445.52,95.91l-8.39-11.66
		c-1.32-1.48-2-3.48-2.16-6.01v-4.91h5.59l0.42,4.91c0.11,1.11,0.42,2.06,0.95,2.85l6.75,9.23l6.59-9.34
		c0.47-0.69,0.74-1.58,0.84-2.69l0.42-4.96h5.59v4.64c0,1.27-0.16,2.32-0.47,3.22c-0.32,0.9-0.9,2-1.79,3.27l-8.23,11.5v10.92h-6.12
		v-0.05v0.05V95.91z M474.79,92.53c-2.9-0.26-4.96-1.16-6.23-2.58c-1.11-1.21-1.64-3.11-1.64-5.75v-2c0-1.32,0.16-2.32,0.47-3.06
		c0.32-0.69,0.9-1.42,1.69-2.22l2.06-2.11c1.42-1.42,3.06-2,4.8-1.85h6.65l2.74,0.21c0.69,0.16,1.48,0.47,2.27,1l3.96,2.37
		l-2.53,4.48l-4.64-2l-2.16-0.42h-5.33c-0.58-0.05-1.05,0.11-1.42,0.48l-1.95,1.95c-0.37,0.32-0.53,0.69-0.47,1.11v2.11
		c-0.16,1.64,0.74,2.53,2.64,2.64l8.44,1.11c3.06,0.37,5.17,1.05,6.38,2.11c1.32,1.11,1.95,3.06,1.95,5.91v2
		c0.05,1.32-0.11,2.37-0.47,3.06c-0.32,0.74-0.84,1.48-1.64,2.22l-2.11,2.11c-1.42,1.43-3.01,2.06-4.8,1.9h-7.86l-2.74-0.21
		c-0.69-0.16-1.48-0.53-2.27-1l-3.96-2.37l2.53-4.49l4.7,1.95c0.58,0.32,1.32,0.47,2.11,0.47h6.59c0.58,0,1.05-0.16,1.37-0.53
		l1.95-1.9c0.37-0.32,0.53-0.69,0.47-1.16v-1.79c0.16-1.58-0.69-2.43-2.53-2.53V93.7v0.05L474.79,92.53z M512.61,106.88h-6.12V78.82
		h-10.24v-5.43h26.64v5.43h-10.29v-0.05v0.05V106.88z M529.33,106.88c-1.16,0.05-1.74-0.53-1.69-1.74V75.07
		c-0.05-1.16,0.53-1.74,1.69-1.69h21.05v5.43h-16.62v8.49h13.77v5.43h-13.77v8.71h16.99v5.43v-0.05v0.05H529.33z M590.85,106.88
		h-5.91V81.77l-8.07,12.93c-0.26,0.37-0.58,0.58-1.05,0.58h-3.17c-0.42,0.05-0.74-0.16-1-0.58l-8.23-12.87v25.06h-5.86V74.23
		c-0.05-0.58,0.26-0.84,0.84-0.9h4.69c0.84-0.05,1.42,0.32,1.79,1l9.44,14.82l9.44-14.93c0.37-0.63,0.9-0.95,1.69-0.9H590
		c0.58,0,0.84,0.32,0.84,0.9v-0.05v0.05V106.88z"/>
	<path class="st1" d="M99.63,1.25l5.28,5.28c0.8,0.8,1.25,1.89,1.25,3.02v71.34c0,1.13-0.45,2.22-1.25,3.02l-22.18,22.18
		c-0.8,0.8-1.89,1.25-3.02,1.25H26.45c-1.13,0-2.22-0.45-3.02-1.25L1.25,83.9C0.45,83.1,0,82.02,0,80.88V9.55
		c0-1.13,0.45-2.22,1.25-3.02l5.28-5.28C7.33,0.45,8.42,0,9.55,0h32.57L26.55,25.66h15.57v45.38h21.92V0h32.57
		C97.75,0,98.83,0.45,99.63,1.25z M392.24,0c-0.64-0.02-1.13,0.15-1.47,0.55l-0.79,0.77c-0.26,0.24-0.43,0.49-0.51,0.7
		c-0.08,0.21-0.11,0.55-0.11,0.98v6.37c0,0.41,0.04,0.73,0.11,0.94c0.08,0.21,0.24,0.41,0.51,0.66l0.79,0.75
		c0.34,0.39,0.83,0.56,1.47,0.54h6.02c0.62,0.02,1.11-0.15,1.43-0.54l0.79-0.75c0.26-0.24,0.43-0.45,0.53-0.66
		c0.08-0.21,0.11-0.53,0.09-0.94V2.99c0.02-0.43-0.02-0.77-0.09-0.98l-0.53-0.7l-0.79-0.77c-0.32-0.4-0.81-0.56-1.43-0.55H392.24z
		 M392.41,11.06c-0.3,0.02-0.55-0.06-0.71-0.26l-0.7-0.73c-0.21-0.17-0.3-0.39-0.28-0.66V2.95c-0.02-0.28,0.08-0.51,0.28-0.7
		l0.7-0.75c0.17-0.23,0.41-0.32,0.71-0.3h5.68c0.28-0.02,0.53,0.08,0.7,0.3l0.68,0.75c0.21,0.19,0.3,0.41,0.28,0.7V9.4
		c0.02,0.26-0.08,0.49-0.28,0.66l-0.68,0.73c-0.17,0.21-0.41,0.28-0.7,0.26H392.41z M395.91,7.29l0.88,2.27h1.24L397,7.08l0.56-0.55
		c0.28-0.21,0.43-0.55,0.41-1V4.41l-0.08-0.56l-0.34-0.41l-0.41-0.38c-0.24-0.24-0.58-0.38-0.98-0.36h-2.88
		c-0.28,0-0.41,0.13-0.41,0.39v6.47h1.18V7.29H395.91z M394.06,6.23V6.22V6.23V3.75h1.97l0.26,0.09l0.39,0.34l0.09,0.23v1.16
		L396.7,5.8l-0.38,0.34c-0.06,0.08-0.13,0.11-0.23,0.09H394.06z M260.52,0h-20.07c-1.36,0-2.66,0.54-3.62,1.5l-5.35,5.35
		c-0.96,0.96-1.5,2.26-1.5,3.61v86.4c0,1.36,0.54,2.66,1.5,3.61l5.35,5.35c0.96,0.96,2.26,1.5,3.62,1.5h20.07
		c1.36,0,2.66-0.54,3.62-1.5l5.35-5.35c0.96-0.96,1.5-2.26,1.5-3.62v-86.4c0-1.36-0.54-2.66-1.5-3.62l-5.35-5.35
		C263.17,0.54,261.87,0,260.52,0z M384.89,93.64l-30.49-40.25l28.17-43.58c0.34-0.53,0.53-1.15,0.53-1.78V3.29
		c0-1.82-1.47-3.29-3.29-3.29h-33.19c-1.11,0-2.14,0.56-2.75,1.48l-21.21,32.2V9.71c0-0.87-0.35-1.71-0.96-2.32l-6.42-6.42
		C314.68,0.35,313.84,0,312.97,0h-21.58c-0.87,0-1.71,0.35-2.32,0.96l-6.42,6.42c-0.62,0.62-0.96,1.45-0.96,2.32v87.91
		c0,0.87,0.35,1.71,0.96,2.32l6.42,6.42c0.62,0.62,1.45,0.96,2.32,0.96h21.58c0.87,0,1.71-0.35,2.32-0.96l6.42-6.42
		c0.62-0.62,0.96-1.45,0.96-2.32V73.76l24.29,32.26c0.62,0.82,1.59,1.31,2.63,1.31h32.69c1.82,0,3.29-1.47,3.29-3.29v-8.42
		C385.33,94.95,385.12,94.32,384.89,93.64z M208.82,0h-29.3v42.41L150.41,0h-23.08c-1.36,0-2.66,0.54-3.62,1.5l-5.35,5.35
		c-0.96,0.96-1.5,2.26-1.5,3.62v86.4c0,1.36,0.54,2.66,1.5,3.62l5.35,5.35c0.96,0.96,2.26,1.5,3.62,1.5h29.3V65.89l29.09,41.44h23.1
		c1.36,0,2.66-0.54,3.62-1.5l5.35-5.35c0.96-0.96,1.5-2.26,1.5-3.62v-86.4c0-1.36-0.54-2.66-1.5-3.62l-5.35-5.35
		C211.48,0.54,210.18,0,208.82,0z"/>
</g>
</svg>
