<?xml version="1.0" encoding="utf-8"?>
<!-- Generator: Adobe Illustrator 23.0.6, SVG Export Plug-In . SVG Version: 6.00 Build 0)  -->
<svg version="1.1" id="Layer_1" xmlns="http://www.w3.org/2000/svg" xmlns:xlink="http://www.w3.org/1999/xlink" x="0px" y="0px"
	 viewBox="0 0 12 12" style="enable-background:new 0 0 12 12;" xml:space="preserve">
<style type="text/css">
	.st0{fill:#231F20;}
	.st1{fill:#33058D;}
</style>
<path class="st0" d="M38,17"/>
<path class="st1" d="M6,1.4c-3.3,0-6,2.7-6,6c0,1.2,0.3,2.3,0.9,3.2h10.2c0.6-0.9,0.9-2,0.9-3.2C12,4.1,9.3,1.4,6,1.4z M7.8,3.6
	c0.3,0,0.6,0.2,0.6,0.6c0,0.3-0.2,0.6-0.6,0.6c-0.3,0-0.6-0.2-0.6-0.6C7.3,3.8,7.5,3.6,7.8,3.6z M6,3c0.3,0,0.6,0.2,0.6,0.6
	S6.3,4.2,6,4.2c-0.3,0-0.6-0.2-0.6-0.6S5.7,3,6,3z M1.7,7.4c0-0.3,0.2-0.6,0.6-0.6c0.3,0,0.6,0.2,0.6,0.6C2.8,7.7,2.6,8,2.3,8
	C2,8,1.7,7.7,1.7,7.4z M2.7,9.8c-0.3,0-0.6-0.2-0.6-0.6c0-0.3,0.2-0.6,0.6-0.6C3,8.7,3.3,9,3.3,9.3C3.3,9.6,3,9.8,2.7,9.8z M2.7,6.1
	c-0.3,0-0.6-0.2-0.6-0.6S2.4,5,2.7,5C3,5,3.3,5.2,3.3,5.5S3,6.1,2.7,6.1z M4.1,4.7c-0.3,0-0.6-0.2-0.6-0.6c0-0.3,0.2-0.6,0.6-0.6
	c0.3,0,0.6,0.2,0.6,0.6C4.7,4.5,4.4,4.7,4.1,4.7z M6.6,8.4C6,8.7,5.3,8.5,5,8C4.7,7.4,4.9,6.7,5.4,6.4c0.4-0.2,0.8-0.2,1.2,0
	l2.3-1.3C9.1,5,9.4,5.1,9.6,5.3C9.7,5.6,9.7,5.9,9.4,6L7.1,7.4C7.2,7.8,7,8.2,6.6,8.4z M9.2,10c-0.3,0-0.6-0.2-0.6-0.6
	c0-0.3,0.2-0.6,0.6-0.6c0.3,0,0.6,0.2,0.6,0.6C9.8,9.7,9.5,10,9.2,10z M9.8,8C9.5,8,9.2,7.7,9.2,7.4c0-0.3,0.2-0.6,0.6-0.6
	c0.3,0,0.6,0.2,0.6,0.6C10.3,7.7,10.1,8,9.8,8z"/>
</svg>
