<?xml version="1.0" encoding="utf-8"?>
<!-- Generator: Adobe Illustrator 23.0.6, SVG Export Plug-In . SVG Version: 6.00 Build 0)  -->
<svg version="1.1" id="Layer_1" xmlns="http://www.w3.org/2000/svg" xmlns:xlink="http://www.w3.org/1999/xlink" x="0px" y="0px"
	 viewBox="0 0 12.01 12.01" style="enable-background:new 0 0 12.01 12.01;" xml:space="preserve">
<style type="text/css">
	.st0{fill:#FFFFFF;}
</style>
<path class="st0" d="M11.93,6.92c0.05-0.3,0.08-0.6,0.08-0.91s-0.03-0.61-0.08-0.91L10.56,4.6c-0.09-0.29-0.2-0.56-0.34-0.83
	l0.63-1.32c-0.36-0.49-0.8-0.93-1.29-1.29L8.23,1.79C7.97,1.66,7.7,1.54,7.41,1.45L6.92,0.08C6.62,0.03,6.32,0,6,0
	S5.39,0.03,5.09,0.08L4.6,1.45c-0.29,0.09-0.56,0.2-0.83,0.34L2.46,1.17c-0.49,0.36-0.93,0.8-1.29,1.29l0.63,1.32
	C1.66,4.04,1.54,4.31,1.45,4.6L0.08,5.09C0.03,5.39,0,5.69,0,6s0.03,0.61,0.08,0.91l1.38,0.49c0.09,0.29,0.2,0.57,0.34,0.83
	L1.17,9.55c0.36,0.49,0.8,0.93,1.29,1.29l1.32-0.63c0.26,0.14,0.54,0.25,0.83,0.34l0.49,1.38c0.3,0.05,0.6,0.08,0.91,0.08
	s0.61-0.03,0.91-0.08l0.49-1.38c0.29-0.09,0.56-0.2,0.83-0.34l1.32,0.63c0.49-0.36,0.93-0.8,1.29-1.29l-0.63-1.32
	c0.14-0.26,0.25-0.54,0.34-0.83L11.93,6.92z M6,7.56c-0.86,0-1.56-0.7-1.56-1.56c0-0.86,0.7-1.56,1.56-1.56S7.56,5.15,7.56,6
	C7.56,6.86,6.86,7.56,6,7.56z"/>
</svg>
