<?xml version="1.0" standalone="no"?>
<!DOCTYPE svg PUBLIC "-//W3C//DTD SVG 1.1//EN" "http://www.w3.org/Graphics/SVG/1.1/DTD/svg11.dtd" >
<svg xmlns="http://www.w3.org/2000/svg">
<metadata>Generated by IcoMoon</metadata>
<defs>
<font id="icomoon" horiz-adv-x="1024">
<font-face units-per-em="1024" ascent="960" descent="-64" />
<missing-glyph horiz-adv-x="1024" />
<glyph unicode="&#x20;" horiz-adv-x="512" d="" />
<glyph unicode="&#xe900;" glyph-name="history" d="M512 960c-282.4 0-512-229.6-512-512s229.6-512 512-512 512 229.6 512 512-229.6 512-512 512zM736.8 223.2c-8-8-18.4-12-28-12s-20.8 4-28 12l-196.8 196.8c-1.6 1.6-3.2 4-4.8 6.4-0.8 0.8-0.8 2.4-1.6 3.2-0.8 1.6-1.6 2.4-2.4 4s-0.8 2.4-1.6 4c0 0.8-0.8 2.4-0.8 3.2-0.8 1.6-0.8 4.8-0.8 7.2v342.4c0 22.4 17.6 40 40 40s40-17.6 40-40v-325.6l184.8-184.8c16-16 16-41.6 0-56.8z" />
<glyph unicode="&#xe901;" glyph-name="processos" d="M222.4 836.8h-160c-34.4 0-62.4-28-62.4-62.4v-120c0-34.4 28-62.4 62.4-62.4h160.8c34.4 0 62.4 28 62.4 62.4v120c-0.8 34.4-28.8 62.4-63.2 62.4zM630.4 836.8h-160.8c-34.4 0-62.4-28-62.4-62.4v-40h-80.8v-40h81.6v-40c0-34.4 28-62.4 62.4-62.4h160.8c34.4 0 62.4 28 62.4 62.4v120c-1.6 34.4-28.8 62.4-63.2 62.4zM962.4 569.6h-160.8c-34.4 0-62.4-28-62.4-62.4v-120c0-34.4 28-62.4 62.4-62.4h160.8c34.4 0 62.4 28 62.4 62.4v120c-0.8 35.2-28.8 62.4-62.4 62.4zM630.4 304.8h-160.8c-34.4 0-62.4-28-62.4-62.4v-40h-80.8v-40h81.6v-40c0-34.4 28-62.4 62.4-62.4h160.8c34.4 0 62.4 28 62.4 62.4v120c-1.6 34.4-28.8 62.4-63.2 62.4zM222.4 304.8h-160c-34.4 0-62.4-28-62.4-62.4v-120c0-34.4 28-62.4 62.4-62.4h160.8c34.4 0 62.4 28 62.4 62.4v120c-0.8 34.4-28.8 62.4-63.2 62.4zM861.6 645.6v-32.8h40v32.8c0 49.6-40 89.6-89.6 89.6h-72.8v-40h72.8c27.2 0 49.6-22.4 49.6-49.6zM861.6 250.4c0-27.2-22.4-49.6-49.6-49.6h-72.8v-40h72.8c49.6 0 89.6 40 89.6 89.6v32.8h-40v-32.8z" />
<glyph unicode="&#xe902;" glyph-name="reports" d="M766.4 432.8v231.2c0 8-3.2 16-8.8 21.6l-231.2 230.4c-5.6 5.6-13.6 8.8-21.6 8.8h-348.8c-39.2 0-71.2-32-71.2-71.2v-747.2c0-39.2 32-71.2 71.2-71.2h386.4c42.4-40 99.2-64.8 162.4-64.8 129.6 0 235.2 105.6 235.2 235.2-0.8 108.8-74.4 200-173.6 227.2zM496 690.4v169.6l208-208.8h-169.6c-21.6 0-38.4 17.6-38.4 39.2zM704 205.6v-173.6c-96 0-173.6 77.6-173.6 173.6s77.6 173.6 173.6 173.6 173.6-77.6 173.6-173.6h-173.6z" />
<glyph unicode="&#xe903;" glyph-name="admin" d="M1024-61.6c0 96-58.4 182.4-148 217.6l-195.2 77.6-2.4 5.6c-8 17.6-21.6 31.2-39.2 39.2v86.4c0 0 77.6 64.8 77.6 120 0 0 47.2 37.6 47.2 77.6 0 25.6-11.2 57.6-25.6 57.6 0 0 28 57.6 28 97.6 0 39.2-3.2 103.2-43.2 142.4-39.2 40-81.6 32-81.6 32s-46.4 68-129.6 68-131.2-7.2-180.8-55.2c-48.8-48-75.2-117.6-75.2-192s29.6-92 29.6-92c-14.4 0-25.6-32-25.6-57.6 0-40.8 47.2-77.6 47.2-77.6 0-55.2 77.6-120 77.6-120v-87.2c-17.6-8-31.2-21.6-39.2-39.2l-2.4-5.6-195.2-77.6c-89.6-35.2-148-121.6-148-217.6h440.8l50.4 166.4-50.4 88h142.4l-50.4-88 50.4-166.4h141.6v38.4c0 25.6 20.8 45.6 45.6 45.6h77.6c25.6 0 45.6-20.8 45.6-45.6v-38.4h130.4z" />
<glyph unicode="&#xe904;" glyph-name="tarefas" d="M254.4 960h-220c-19.2 0-34.4-15.2-34.4-34.4v-220c0-19.2 15.2-34.4 34.4-34.4h220c19.2 0 34.4 15.2 34.4 34.4v220c0 19.2-15.2 34.4-34.4 34.4zM230.4 842.4l-87.2-87.2c-4.8-4.8-11.2-7.2-16.8-7.2s-12 2.4-16.8 7.2l-51.2 51.2c-9.6 9.6-9.6 24.8 0 33.6 9.6 9.6 24.8 9.6 33.6 0l34.4-34.4 70.4 70.4c9.6 9.6 24.8 9.6 33.6 0 9.6-8.8 9.6-24 0-33.6zM1004 795.2h-574.4c-11.2 0-20 8.8-20 20v0c0 11.2 8.8 20 20 20h574.4c11.2 0 20-8.8 20-20v0c0-10.4-8.8-20-20-20zM254.4 592h-220c-19.2 0-34.4-15.2-34.4-33.6v-220c0-19.2 15.2-34.4 34.4-34.4h220c19.2 0 34.4 15.2 34.4 34.4v220c0 18.4-15.2 33.6-34.4 33.6zM230.4 474.4l-87.2-87.2c-4.8-4.8-11.2-7.2-16.8-7.2s-12 2.4-16.8 7.2l-51.2 51.2c-9.6 9.6-9.6 24.8 0 33.6 9.6 9.6 24.8 9.6 33.6 0l34.4-34.4 70.4 70.4c9.6 9.6 24.8 9.6 33.6 0 9.6-8.8 9.6-24 0-33.6zM1004 428h-574.4c-11.2 0-20 8.8-20 20v0c0 11.2 8.8 20 20 20h574.4c11.2 0 20-8.8 20-20v0c0-11.2-8.8-20-20-20zM1004 60h-574.4c-11.2 0-20 8.8-20 20v0c0 11.2 8.8 20 20 20h574.4c11.2 0 20-8.8 20-20v0c0-11.2-8.8-20-20-20zM254.4 224.8h-220c-19.2 0-34.4-15.2-34.4-34.4v-220c0-19.2 15.2-34.4 34.4-34.4h220c19.2 0 34.4 15.2 34.4 34.4v220c0 19.2-15.2 34.4-34.4 34.4z" />
<glyph unicode="&#xe905;" glyph-name="favorites" d="M570.4 895.2l92-284h298.4c60 0 84.8-76.8 36-112l-240.8-176 92-284c18.4-56.8-46.4-104-95.2-68.8l-240.8 176-241.6-175.2c-48.8-35.2-113.6 12-95.2 68.8l92 284-240.8 175.2c-48.8 35.2-23.2 112 36 112h298.4l92.8 284c18.4 56.8 98.4 56.8 116.8 0z" />
<glyph unicode="&#xe906;" glyph-name="gdpr" d="M662.4 558.4h-16.8v51.2c0 73.6-60 132.8-132.8 132.8s-132.8-60-132.8-132.8v-51.2h-17.6c-35.2 0-64-28.8-64-64v-219.2c0-35.2 28.8-64 64-64h300.8c35.2 0 64 28.8 64 64v219.2c-1.6 35.2-29.6 64-64.8 64zM427.2 609.6c0 47.2 38.4 84.8 84.8 84.8s84.8-38.4 84.8-84.8v-51.2h-169.6v51.2zM538.4 343.2c0-14.4-12-25.6-25.6-25.6-14.4 0-25.6 12-25.6 25.6v82.4c0 14.4 12 25.6 25.6 25.6 14.4 0 25.6-12 25.6-25.6v-82.4zM516.8 944l8-24.8h25.6c4.8 0 7.2-6.4 3.2-9.6l-20.8-15.2 8-24.8c1.6-4.8-4-8.8-8-5.6l-20.8 16-20.8-15.2c-4-3.2-9.6 0.8-8 5.6l8 24.8-20.8 15.2c-4.8 3.2-2.4 9.6 2.4 9.6h25.6l8 24.8c1.6 4.8 8.8 4.8 10.4-0.8zM516.8 28.8l8-24.8h25.6c4.8 0 7.2-6.4 3.2-9.6l-20.8-15.2 8-24.8c1.6-4.8-4-8.8-8-5.6l-20.8 15.2-20.8-15.2c-4-3.2-9.6 0.8-8 5.6l8 24.8-20.8 15.2c-4 3.2-2.4 9.6 3.2 9.6h25.6l8 24.8c0.8 4.8 8 4.8 9.6 0zM282.4 99.2l8-24.8h25.6c4.8 0 7.2-6.4 3.2-9.6l-20.8-15.2 8-24.8c1.6-4.8-4-8.8-8-5.6l-20.8 15.2-20.8-15.2c-4-3.2-9.6 0.8-8 5.6l8 24.8-20.8 15.2c-4 3.2-2.4 9.6 3.2 9.6h24.8l8 24.8c1.6 5.6 8.8 5.6 10.4 0zM122.4 260.8l8-24.8h25.6c4.8 0 7.2-6.4 3.2-9.6l-20.8-15.2 8-24.8c1.6-4.8-4-8.8-8-5.6l-20.8 15.2-20.8-15.2c-4-3.2-9.6 0.8-8 5.6l8 24.8-20.8 15.2c-4 3.2-2.4 9.6 3.2 9.6h24.8l8 24.8c1.6 4.8 8.8 4.8 10.4 0zM122.4 717.6l8-24.8h25.6c4.8 0 7.2-6.4 3.2-9.6l-20.8-15.2 8-24.8c1.6-4.8-4-8.8-8-5.6l-20.8 15.2-20.8-15.2c-4-3.2-9.6 0.8-8 5.6l8 24.8-20.8 15.2c-4 3.2-2.4 9.6 3.2 9.6h24.8l8 24.8c1.6 4.8 8.8 4.8 10.4 0zM60 489.6l8-24.8h25.6c4.8 0 7.2-6.4 3.2-9.6l-20.8-15.2 8-24.8c1.6-4.8-4-8.8-8-5.6l-20.8 15.2-20.8-15.2c-4-3.2-9.6 0.8-8 5.6l8 24.8-20.8 15.2c-4 3.2-2.4 9.6 3.2 9.6h25.6l8 24.8c1.6 4.8 8 4.8 9.6 0zM282.4 878.4l8-24.8h25.6c4.8 0 7.2-6.4 3.2-9.6l-20.8-15.2 8-24.8c1.6-4.8-4-8.8-8-5.6l-20.8 15.2-20.8-15.2c-4-3.2-9.6 0.8-8 5.6l8 24.8-20.8 15.2c-4 3.2-2.4 9.6 3.2 9.6h24.8l8 24.8c1.6 4.8 8.8 4.8 10.4 0zM741.6 99.2l-8-24.8h-25.6c-4.8 0-7.2-6.4-3.2-9.6l20.8-15.2-8-24.8c-1.6-4.8 4-8.8 8-5.6l20.8 15.2 20.8-15.2c4-3.2 9.6 0.8 8 5.6l-8 24.8 20.8 15.2c4 3.2 2.4 9.6-3.2 9.6h-24.8l-8 24.8c-1.6 5.6-8.8 5.6-10.4 0zM901.6 260.8l-8-24.8h-25.6c-4.8 0-7.2-6.4-3.2-9.6l20.8-15.2-8-24.8c-1.6-4.8 4-8.8 8-5.6l20.8 15.2 20.8-15.2c4-3.2 9.6 0.8 8 5.6l-8 24.8 20.8 15.2c4 3.2 2.4 9.6-3.2 9.6h-24.8l-8 24.8c-1.6 4.8-8.8 4.8-10.4 0zM901.6 717.6l-8-24.8h-25.6c-4.8 0-7.2-6.4-3.2-9.6l20.8-15.2-8-24.8c-1.6-4.8 4-8.8 8-5.6l20.8 15.2 20.8-15.2c4-3.2 9.6 0.8 8 5.6l-8 24.8 20.8 15.2c4 3.2 2.4 9.6-3.2 9.6h-24.8l-8 24.8c-1.6 4.8-8.8 4.8-10.4 0zM964 489.6l-8-24.8h-25.6c-4.8 0-7.2-6.4-3.2-9.6l20.8-15.2-8-24.8c-1.6-4.8 4-8.8 8-5.6l20.8 15.2 20.8-15.2c4-3.2 9.6 0.8 8 5.6l-8 24.8 20.8 15.2c4 3.2 2.4 9.6-3.2 9.6h-25.6l-8 24.8c-1.6 4.8-8 4.8-9.6 0zM741.6 878.4l-8-24.8h-25.6c-4.8 0-7.2-6.4-3.2-9.6l20.8-15.2-8-24.8c-1.6-4.8 4-8.8 8-5.6l20.8 15.2 20.8-15.2c4-3.2 9.6 0.8 8 5.6l-8 24.8 20.8 15.2c4 3.2 2.4 9.6-3.2 9.6h-24.8l-8 24.8c-1.6 4.8-8.8 4.8-10.4 0z" />
<glyph unicode="&#xe907;" glyph-name="finance" d="M512 958.4c-282.4 0-512-229.6-512-512s229.6-512 512-512 512 229.6 512 512c0 283.2-229.6 512-512 512zM659.2 635.2c-31.2 25.6-66.4 38.4-106.4 38.4-43.2 0-79.2-10.4-108-31.2-17.6-12-32.8-29.6-47.2-52-14.4-23.2-22.4-45.6-25.6-66.4h261.6l-10.4-51.2h-257.6c0-5.6 0-10.4 0-15.2 0-20 0-31.2 0-35.2h247.2l-10.4-51.2h-228.8c10.4-58.4 36.8-100 77.6-124.8 29.6-17.6 61.6-26.4 96-26.4 48 0 85.6 12.8 112 37.6v-79.2c-32-15.2-67.2-22.4-105.6-22.4-116 0-193.6 48-234.4 144-8 19.2-15.2 43.2-20.8 70.4h-58.4l10.4 51.2h40c-0.8 10.4-0.8 22.4-0.8 35.2 0 4.8 0 10.4 0 16h-50.4l10.4 51.2h44.8c16 83.2 57.6 143.2 124 180 41.6 22.4 86.4 33.6 136 33.6 48 0 88-10.4 120-31.2l-15.2-71.2z" />
<glyph unicode="&#xe908;" glyph-name="hr" d="M635.803 646.688c16.042-67.938-26.028-136.017-93.966-152.059s-136.017 26.028-152.059 93.966c-16.042 67.938 26.028 136.017 93.966 152.059s136.017-26.028 152.059-93.966zM302.974 706.978c49.362-49.362 49.362-129.393 0-178.755s-129.393-49.362-178.755 0c-49.362 49.362-49.362 129.393 0 178.755s129.393 49.362 178.755 0zM938.4 617.6c0-69.809-56.591-126.4-126.4-126.4s-126.4 56.591-126.4 126.4c0 69.809 56.591 126.4 126.4 126.4s126.4-56.591 126.4-126.4zM242.4 404.8h-68.8c-96 0-173.6-78.4-173.6-174.4v-24c0-29.6 24-53.6 53.6-53.6h131.2c-7.2 16.8-11.2 34.4-11.2 53.6v24c0 67.2 26.4 128.8 68.8 174.4zM771.2 246.4c0 4-0.8 8.8-1.6 12.8 0 0.8 0 1.6-0.8 2.4-0.8 4-1.6 8.8-2.4 12.8 0 0 0 0.8 0 0.8-0.8 4-2.4 8-4 12 0 0.8 0 0.8-0.8 1.6-1.6 4-3.2 8-4.8 12 0 0.8-0.8 1.6-0.8 1.6-1.6 4-4 8-5.6 11.2 0 0.8-0.8 0.8-0.8 1.6-4.8 8-9.6 15.2-15.2 22.4 0 0-0.8 0.8-0.8 0.8-2.4 3.2-5.6 7.2-8.8 10.4 0 0-0.8 0.8-0.8 0.8-9.6 10.4-20.8 19.2-32 26.4 0 0 0 0-0.8 0-12 8-24.8 13.6-38.4 18.4 0 0 0 0 0 0-16.8 5.6-35.2 8.8-54.4 8.8h-171.2c-19.2 0-37.6-3.2-55.2-8.8 0 0 0 0-0.8 0-13.6-4.8-26.4-10.4-38.4-18.4 0 0-0.8 0-0.8-0.8-4-2.4-7.2-4.8-11.2-8 0 0 0 0-0.8 0-7.2-5.6-14.4-12-20-18.4 0 0-0.8-0.8-0.8-0.8-3.2-3.2-5.6-6.4-8.8-9.6 0 0-0.8-0.8-0.8-0.8-2.4-3.2-5.6-7.2-8-10.4 0 0 0 0 0 0-2.4-4-4.8-7.2-7.2-11.2 0 0-0.8-0.8-0.8-0.8-2.4-4-4-7.2-5.6-11.2 0-0.8-0.8-1.6-0.8-1.6-1.6-4-3.2-8-4.8-12 0-0.8 0-0.8-0.8-1.6-1.6-4-2.4-8-4-12 0 0 0-0.8 0-0.8-0.8-4-1.6-8.8-2.4-12.8 0-0.8 0-1.6-0.8-2.4-0.8-4-1.6-8.8-1.6-12.8 0-0.8 0-1.6 0-2.4 0-4.8-0.8-8.8-0.8-13.6v-24c0-29.6 24-53.6 53.6-53.6h411.2c29.6 0 53.6 24 53.6 53.6v24c0 4.8 0 9.6-0.8 13.6 1.6 0 1.6 0.8 1.6 0.8zM850.4 404.8h-67.2c42.4-45.6 68.8-106.4 68.8-173.6v-24c0-19.2-4-37.6-11.2-53.6h129.6c29.6 0 53.6 24 53.6 53.6v24c0 95.2-77.6 173.6-173.6 173.6z" />
<glyph unicode="&#xe909;" glyph-name="bpm" d="M916.8 555.2c-4.8 0-10.4-0.8-15.2-0.8l-102.4 177.6c14.4 18.4 23.2 41.6 23.2 66.4 0 59.2-48 107.2-107.2 107.2-44.8 0-84-28-99.2-67.2h-206.4c-16 39.2-54.4 67.2-99.2 67.2-59.2 0-107.2-48-107.2-107.2 0-24.8 8.8-48 23.2-66.4l-104-177.6c-4.8 0.8-9.6 0.8-15.2 0.8-59.2 0-107.2-48-107.2-107.2s48-107.2 107.2-107.2c4.8 0 10.4 0.8 15.2 0.8l103.2-178.4c-14.4-18.4-23.2-40.8-23.2-66.4 0-59.2 48-107.2 107.2-107.2 44.8 0 84 28 99.2 67.2h206.4c16-39.2 54.4-67.2 99.2-67.2 59.2 0 107.2 48 107.2 107.2 0 24.8-8.8 48-23.2 66.4l102.4 177.6c4.8-0.8 9.6-0.8 15.2-0.8 59.2 0 107.2 48 107.2 107.2s-47.2 108-106.4 108zM715.2 204.8c-44.8 0-84-28-99.2-67.2h-206.4c-16 39.2-54.4 67.2-99.2 67.2-4.8 0-10.4-0.8-15.2-0.8l-103.2 177.6c14.4 18.4 23.2 40.8 23.2 66.4s-8.8 48-23.2 66.4l103.2 178.4c4.8-0.8 9.6-0.8 15.2-0.8 44.8 0 84 28 99.2 67.2h206.4c16-39.2 54.4-67.2 99.2-67.2 4.8 0 9.6 0.8 14.4 0.8l102.4-178.4c-14.4-18.4-23.2-40.8-23.2-66.4s8.8-48 23.2-66.4l-102.4-177.6c-4.8 0.8-9.6 0.8-14.4 0.8z" />
<glyph unicode="&#xe90a;" glyph-name="add" d="M512 960c-283.2 0-512-229.6-512-512s228.8-512 512-512 512 228.8 512 512c0 282.4-229.6 512-512 512zM744.8 408h-192.8v-193.6h-91.2v193.6h-193.6v91.2h193.6v193.6h91.2v-193.6h193.6v-91.2z" />
<glyph unicode="&#xe90b;" glyph-name="bell" d="M921.6 149.333v-59.733h-819.2v59.733l102.4 93.867v324.267c0 136.533 93.867 247.467 230.4 281.6v51.2c0 34.133 34.133 59.733 76.8 59.733s76.8-25.6 76.8-59.733v-51.2c128-34.133 230.4-145.067 230.4-281.6v-324.267l102.4-93.867zM512-64c59.733 0 102.4 42.667 102.4 102.4h-204.8c0-59.733 42.667-102.4 102.4-102.4z" />
<glyph unicode="&#xe90c;" glyph-name="dashboard" d="M512 840.533c-281.6 0-512-230.4-512-512 0-102.4 25.6-196.267 76.8-273.067h870.4c51.2 76.8 76.8 170.667 76.8 273.067 0 281.6-230.4 512-512 512zM665.6 652.8c25.6 0 51.2-17.067 51.2-51.2 0-25.6-17.067-51.2-51.2-51.2-25.6 0-51.2 17.067-51.2 51.2 8.533 34.133 25.6 51.2 51.2 51.2zM512 704c25.6 0 51.2-17.067 51.2-51.2s-25.6-51.2-51.2-51.2-51.2 17.067-51.2 51.2 25.6 51.2 51.2 51.2zM145.067 328.533c0 25.6 17.067 51.2 51.2 51.2 25.6 0 51.2-17.067 51.2-51.2-8.533-25.6-25.6-51.2-51.2-51.2s-51.2 25.6-51.2 51.2zM230.4 123.733c-25.6 0-51.2 17.067-51.2 51.2 0 25.6 17.067 51.2 51.2 51.2 25.6-8.533 51.2-34.133 51.2-59.733s-25.6-42.667-51.2-42.667zM230.4 439.467c-25.6 0-51.2 17.067-51.2 51.2s25.6 42.667 51.2 42.667 51.2-17.067 51.2-42.667-25.6-51.2-51.2-51.2zM349.867 558.933c-25.6 0-51.2 17.067-51.2 51.2 0 25.6 17.067 51.2 51.2 51.2 25.6 0 51.2-17.067 51.2-51.2s-25.6-51.2-51.2-51.2zM563.2 243.2c-51.2-25.6-110.933-8.533-136.533 34.133-25.6 51.2-8.533 110.933 34.133 136.533 34.133 17.067 68.267 17.067 102.4 0l196.267 110.933c17.067 8.533 42.667 0 59.733-17.067 8.533-25.6 8.533-51.2-17.067-59.733l-196.267-119.467c8.533-34.133-8.533-68.267-42.667-85.333zM785.067 106.667c-25.6 0-51.2 17.067-51.2 51.2 0 25.6 17.067 51.2 51.2 51.2 25.6 0 51.2-17.067 51.2-51.2 0-25.6-25.6-51.2-51.2-51.2zM836.267 277.333c-25.6 0-51.2 25.6-51.2 51.2s17.067 51.2 51.2 51.2c25.6 0 51.2-17.067 51.2-51.2-8.533-25.6-25.6-51.2-51.2-51.2z" />
<glyph unicode="&#xe90d;" glyph-name="gear" d="M1015.467 371.2c8.533 25.6 8.533 51.2 8.533 76.8s0 51.2-8.533 76.8l-119.467 42.667c-8.533 25.6-17.067 51.2-25.6 68.267l51.2 110.933c-25.6 42.667-59.733 85.333-102.4 110.933l-119.467-51.2c-17.067 8.533-42.667 25.6-68.267 25.6l-42.667 119.467c-25.6 8.533-51.2 8.533-76.8 8.533s-51.2 0-76.8-8.533l-42.667-119.467c-25.6 0-51.2-17.067-68.267-25.6l-110.933 51.2c-42.667-25.6-85.333-68.267-110.933-110.933l51.2-110.933c-8.533-17.067-25.6-42.667-25.6-68.267l-119.467-42.667c-8.533-25.6-8.533-51.2-8.533-76.8s0-51.2 8.533-76.8l119.467-42.667c8.533-25.6 17.067-51.2 25.6-68.267l-51.2-119.467c25.6-34.133 68.267-76.8 110.933-102.4l110.933 51.2c25.6-8.533 42.667-25.6 68.267-25.6l42.667-119.467c25.6-8.533 51.2-8.533 76.8-8.533s51.2 0 76.8 8.533l42.667 119.467c25.6 8.533 51.2 17.067 68.267 25.6l110.933-51.2c42.667 34.133 76.8 68.267 110.933 110.933l-51.2 110.933c8.533 25.6 25.6 42.667 25.6 68.267l119.467 42.667zM512 311.467c-76.8 0-136.533 59.733-136.533 136.533s59.733 136.533 136.533 136.533 136.533-68.267 136.533-136.533c0-76.8-59.733-136.533-136.533-136.533z" />
<glyph unicode="&#xe90e;" glyph-name="logout" d="M460.8 294.4v-247.467c0-8.533 8.533-17.067 17.067-17.067h375.467c8.533 0 17.067 8.533 17.067 17.067v793.6c0 8.533-8.533 17.067-17.067 17.067h-375.467c-8.533 0-17.067-8.533-17.067-17.067v-238.933h-102.4v238.933c0 68.267 51.2 119.467 119.467 119.467h375.467c68.267 0 119.467-51.2 119.467-119.467v-785.067c0-68.267-51.2-119.467-119.467-119.467h-375.467c-68.267 0-119.467 51.2-119.467 119.467v238.933h102.4zM51.2 448l204.8 213.333v-153.6h460.8v-110.933h-460.8v-153.6z" />
<glyph unicode="&#xe90f;" glyph-name="moon" d="M716.8 934.4c34.133-68.267 59.733-145.067 59.733-230.4 0-281.6-230.4-512-512-512-85.333 0-162.133 17.067-230.4 59.733 85.333-162.133 256-281.6 452.267-281.6 281.6 0 512 230.4 512 512 0 196.267-110.933 366.933-281.6 452.267z" />
<glyph unicode="&#xe910;" glyph-name="trophy" d="M887.467 763.733c-59.733 0-59.733-25.6-59.733-25.6v-8.533c8.533 68.267 0 110.933 0 110.933v0c25.6 0 42.667 17.067 42.667 42.667s-25.6 42.667-42.667 42.667h-631.467c-25.6 0-42.667-17.067-42.667-42.667s17.067-42.667 42.667-42.667v0c0 0-8.533-42.667 0-110.933v8.533c0 0 0 25.6-59.733 25.6s-136.533-59.733-136.533-136.533 76.8-162.133 341.333-273.067v0c25.6-34.133 59.733-68.267 93.867-102.4h153.6c34.133 34.133 68.267 68.267 93.867 102.4v0c264.533 110.933 341.333 187.733 341.333 273.067s-76.8 136.533-136.533 136.533zM76.8 635.733c0 68.267 85.333 51.2 102.4 25.6 17.067-17.067 25.6-34.133 42.667-42.667 8.533-42.667 25.6-93.867 51.2-145.067v0c0 0-196.267 93.867-196.267 162.133zM759.467 473.6v0c17.067 51.2 34.133 93.867 51.2 145.067 8.533 17.067 25.6 25.6 34.133 42.667 17.067 25.6 102.4 42.667 102.4-25.6s-187.733-162.133-187.733-162.133zM716.8 46.933h-8.533v42.667c0 42.667-34.133 76.8-76.8 76.8h-238.933c-42.667 0-76.8-34.133-76.8-76.8v-42.667h-8.533c-17.067 0-34.133-17.067-34.133-34.133v-8.533c0-17.067 17.067-34.133 34.133-34.133h409.6c17.067 0 34.133 17.067 34.133 34.133v8.533c0 17.067-17.067 34.133-34.133 34.133z" />
<glyph unicode="&#xe911;" glyph-name="generic" d="M742.4 704l25.6-25.6c0 0 0-8.533 0-8.533v-349.867c0-8.533 0-8.533 0-17.067l-110.933-110.933c-8.533 0-8.533-8.533-17.067-8.533h-256c-8.533 0-8.533 8.533-17.067 8.533l-110.933 110.933c0 0 0 8.533 0 17.067v349.867c0 0 0 8.533 0 8.533l25.6 25.6c8.533 0 8.533 8.533 17.067 8.533h426.667c8.533 0 8.533-8.533 17.067-8.533z" />
<glyph unicode="&#xe912;" glyph-name="search" d="M998.4 81.067l-264.533 264.533c42.667 59.733 68.267 136.533 68.267 221.867 0 213.333-179.2 392.533-401.067 392.533s-401.067-179.2-401.067-401.067 179.2-401.067 401.067-401.067c76.8 0 153.6 25.6 213.333 59.733l264.533-264.533c34.133-34.133 85.333-34.133 119.467 0 34.133 42.667 34.133 93.867 0 128zM401.067 251.733c-170.667 0-307.2 136.533-307.2 307.2s136.533 307.2 307.2 307.2 307.2-136.533 307.2-307.2-136.533-307.2-307.2-307.2z" />
<glyph unicode="&#xe913;" glyph-name="attach" d="M256-12.8c-59.733 0-128 17.067-179.2 68.267-102.4 102.4-102.4 264.533 0 366.933l426.667 426.667c17.067 25.6 51.2 25.6 68.267 0s17.067-51.2 0-68.267l-426.667-426.667c-59.733-59.733-59.733-162.133 0-221.867s162.133-59.733 221.867 0l529.067 529.067c34.133 34.133 34.133 93.867 0 119.467-34.133 34.133-93.867 34.133-119.467 0l-469.333-452.267c-8.533-17.067-8.533-25.6-8.533-25.6s0-8.533 8.533-17.067 25.6-8.533 34.133 0l341.333 341.333c17.067 17.067 51.2 17.067 68.267 0s17.067-51.2 0-68.267l-341.333-341.333c-51.2-51.2-128-51.2-170.667 0-34.133 25.6-42.667 59.733-42.667 85.333s8.533 59.733 42.667 93.867l460.8 460.8c68.267 68.267 196.267 68.267 273.067 0 68.267-68.267 68.267-196.267 0-273.067l-529.067-520.533c-51.2-51.2-110.933-76.8-187.733-76.8z" />
<glyph unicode="&#xe914;" glyph-name="check" d="M401.067 55.467v0c-34.133 0-76.8 17.067-102.4 34.133l-256 247.467c-59.733 59.733-59.733 153.6 0 213.333s145.067 59.733 204.8 0l145.067-145.067 392.533 392.533c59.733 59.733 145.067 59.733 204.8 0s59.733-145.067 0-204.8l-477.867-503.467c-34.133-17.067-76.8-34.133-110.933-34.133z" />
<glyph unicode="&#xe915;" glyph-name="tarefas2" d="M972.8 721.067h-597.333c-34.133 0-42.667 17.067-42.667 42.667s17.067 42.667 42.667 42.667h605.867c25.6 0 42.667-17.067 42.667-42.667s-34.133-42.667-51.2-42.667zM972.8 379.733h-597.333c-17.067 0-42.667 17.067-42.667 42.667 0 17.067 17.067 42.667 42.667 42.667h605.867c25.6 0 42.667-17.067 42.667-42.667 0-17.067-34.133-42.667-51.2-42.667zM972.8 46.933h-597.333c-17.067 0-42.667 17.067-42.667 42.667 0 17.067 8.533 42.667 42.667 42.667h605.867c17.067 0 42.667-17.067 42.667-42.667s-34.133-42.667-51.2-42.667zM68.267 678.4c-8.533 0-17.067 0-34.133 8.533l-25.6 42.667c-8.533 17.067-8.533 34.133 0 59.733 8.533 8.533 42.667 8.533 51.2 0v0l59.733 85.333c25.6 8.533 51.2 17.067 68.267 0 8.533-8.533 17.067-34.133 0-51.2l-85.333-119.467c-8.533-17.067-17.067-17.067-34.133-25.6v0zM68.267 354.133c-8.533 0-17.067 0-34.133 8.533l-25.6 34.133c-8.533 8.533-8.533 42.667 0 51.2s42.667 8.533 51.2 0v0l59.733 85.333c25.6 8.533 51.2 17.067 68.267 8.533 8.533-17.067 17.067-42.667 0-59.733l-85.333-119.467c-8.533-8.533-17.067-8.533-34.133-8.533v0zM68.267 12.8c-8.533 0-17.067 0-34.133 8.533l-34.133 34.133c0 8.533 0 42.667 8.533 51.2 17.067 17.067 42.667 17.067 59.733 0v0l59.733 85.333c17.067 25.6 42.667 25.6 59.733 8.533 8.533-8.533 17.067-42.667 0-51.2l-85.333-128c-8.533-8.533-17.067-8.533-34.133-8.533v0z" />
<glyph unicode="&#xe916;" glyph-name="rounded-square" d="M887.467 960h-733.867c-85.333 0-153.6-68.267-153.6-153.6v-716.8c0-85.333 68.267-153.6 153.6-153.6h716.8c85.333 0 153.6 68.267 153.6 153.6v716.8c17.067 85.333-51.2 153.6-136.533 153.6z" />
<glyph unicode="&#xe917;" glyph-name="circle" d="M1024 448c0-282.77-229.23-512-512-512s-512 229.23-512 512c0 282.77 229.23 512 512 512s512-229.23 512-512z" />
<glyph unicode="&#xe918;" glyph-name="external-link" d="M708.267 55.467h-597.333v597.333h435.2l119.467 119.467h-597.333c-42.667 8.533-68.267-17.067-68.267-51.2v-725.333c0-34.133 25.6-59.733 59.733-59.733h725.333c34.133 0 59.733 25.6 59.733 59.733v640l-119.467-119.467v-460.8h-17.067zM1006.933 934.4c-8.533 8.533-17.067 25.6-34.133 25.6v0 0c-8.533 0-8.533 0-25.6 0h-358.4c-34.133 0-42.667-34.133-42.667-59.733s25.6-51.2 59.733-51.2h213.333l-384-384c-25.6-25.6-25.6-59.733 0-85.333s68.267-25.6 93.867 0l375.467 375.467v-221.867c0-34.133 25.6-59.733 59.733-59.733s59.733 25.6 59.733 59.733v366.933c0 8.533-8.533 25.6-17.067 34.133z" />
<glyph unicode="&#xe919;" glyph-name="mail" d="M512 465.067l503.467 307.2c-8.533 51.2-51.2 85.333-93.867 85.333h-819.2c-51.2 0-85.333-34.133-93.867-85.333l503.467-307.2zM512 345.6l-512 307.2v-512c0-59.733 42.667-102.4 102.4-102.4h819.2c59.733 0 102.4 42.667 102.4 102.4v512l-512-307.2z" />
<glyph unicode="&#xe91a;" glyph-name="phone" d="M136.533 388.267l307.2-307.2c145.067-145.067 366.933-145.067 512 0 42.667 42.667 42.667 110.933 0 153.6l-68.267 68.267c-51.2 51.2-136.533 51.2-187.733 0l-34.133-51.2c-34.133-34.133-93.867-34.133-128 0l-221.867 221.867c-34.133 34.133-34.133 93.867 0 128l42.667 42.667c51.2 51.2 51.2 136.533 0 187.733l-68.267 68.267c-42.667 42.667-110.933 42.667-153.6 0-136.533-145.067-136.533-375.467 0-512z" />
<glyph unicode="&#xe91b;" glyph-name="edit-user" d="M464.133 933.867c82.69-51.099 108.299-159.557 57.2-242.246s-159.557-108.299-242.246-57.2c-82.69 51.099-108.299 159.557-57.2 242.246s159.557 108.299 242.246 57.2zM621.6 446.4c0 0 0 0-0.8 0-16.8 11.2-34.4 19.2-53.6 25.6-23.2 8-48.8 12-76 12h-239.2c-26.4 0-52.8-4.8-76.8-12 0 0 0 0-0.8 0-19.2-6.4-36.8-14.4-53.6-25.6 0 0-0.8 0-0.8-0.8-5.6-3.2-10.4-6.4-16-11.2 0 0 0 0-0.8 0-10.4-8-20-16.8-28-25.6l-1.6-0.8c-4.8-4.8-8-8.8-12-13.6l-0.8-0.8c-3.2-4.8-8-10.4-11.2-14.4-3.2-5.6-6.4-10.4-10.4-16l-0.8-0.8c-3.2-5.6-5.6-10.4-8-16 0-0.8-0.8-2.4-0.8-2.4-2.4-5.6-4.8-11.2-6.4-16.8 0-0.8 0-0.8-0.8-2.4-2.4-5.6-3.2-11.2-5.6-16.8v-0.8c-0.8-5.6-2.4-12-3.2-17.6 0-0.8 0-2.4-0.8-3.2-0.8-5.6-2.4-12-2.4-17.6 0-0.8 0-2.4 0-3.2 0-6.4-0.8-12-0.8-19.2v-33.6c0-41.6 33.6-74.4 74.4-74.4h256.8l297.6 297.6c-6.4 4-11.2 7.2-16.8 10.4zM988 558.4v0c-19.2 19.2-44 28-68.8 28s-49.6-9.6-68.8-28l-40-40 136.8-136.8 40 40c38.4 37.6 38.4 99.2 0.8 136.8zM545.6 253.6l-180.8-180.8v-136.8h136.8l394.4 393.6-136.8 137.6z" />
<glyph unicode="&#xe91c;" glyph-name="trash" d="M897.6 832.8h-1.6v0.8h-215.2v44c0 44.8-37.6 82.4-83.2 82.4h-171.2c-45.6 0-83.2-37.6-83.2-83.2v-44h-215.2v-0.8h-1.6c-23.2 0-41.6-18.4-41.6-41.6v0c0-23.2 18.4-41.6 41.6-41.6h1.6v-692.8c0-65.6 53.6-120 120-120h528.8c65.6 0 120 53.6 120 120v693.6h1.6c23.2 0 41.6 18.4 41.6 41.6v0c-0.8 23.2-19.2 41.6-42.4 41.6zM384.8 182.4c0-24-19.2-42.4-42.4-42.4s-42.4 19.2-42.4 42.4v404c0 24 19.2 42.4 42.4 42.4s42.4-19.2 42.4-42.4v-404zM554.4 182.4c0-24-19.2-42.4-42.4-42.4-24 0-42.4 19.2-42.4 42.4v404c0 24 19.2 42.4 42.4 42.4 24 0 42.4-19.2 42.4-42.4v-404zM595.2 834.4h-166.4v40.8h166.4v-40.8zM724.8 182.4c0-24-19.2-42.4-42.4-42.4s-42.4 19.2-42.4 42.4v404c0 24 19.2 42.4 42.4 42.4s42.4-19.2 42.4-42.4v-404z" />
<glyph unicode="&#xe91d;" glyph-name="user-sheet" d="M943.2 704h-519.2v-59.2c22.4-5.6 46.4-13.6 70.4-23.2h441.6v-384h-212.8v-211.2h-382.4v300h-84.8v-309.6c0-44.8 36-80.8 80.8-80.8h416.8l270.4 270.4v416.8c0 44.8-36 80.8-80.8 80.8zM288 382.4h256c17.6 0 32 14.4 32 32v58.4c0 70.4-160.8 127.2-230.4 127.2h-115.2c-69.6 0-230.4-56.8-230.4-126.4v-58.4c0-17.6 14.4-32 32-32h256zM416 832c0-70.692-57.308-128-128-128s-128 57.308-128 128c0 70.692 57.308 128 128 128s128-57.308 128-128z" />
<glyph unicode="&#xe91e;" glyph-name="cart" d="M366.4 396.8h354.4c47.2 0 90.4 24.8 114.4 64.8l180 303.2c24 40-4.8 91.2-52 91.2h-742.4l-33.6 72c-8 16.8-24.8 28-43.2 28h-96c-26.4 0-48-21.6-48-48s21.6-48 48-48h65.6l13.6-30.4 150.4-376.8-59.2-81.6c-13.6-19.2-20.8-42.4-20.8-65.6 0-62.4 50.4-113.6 113.6-113.6h560.8c28.8 0 52.8 23.2 52.8 52.8 0 28.8-23.2 52.8-52.8 52.8h-560.8c-4.8 0-8 4-8 8 0 1.6 0.8 3.2 0.8 4l62.4 87.2zM408 40.8c0-56.112-45.488-101.6-101.6-101.6s-101.6 45.488-101.6 101.6c0 56.112 45.488 101.6 101.6 101.6s101.6-45.488 101.6-101.6zM918.77 57.148c8.989-55.388-28.625-107.577-84.013-116.566s-107.577 28.625-116.566 84.013c-8.989 55.388 28.625 107.577 84.013 116.566s107.577-28.625 116.566-84.013z" />
<glyph unicode="&#xe91f;" glyph-name="compliance" d="M288.8 312.8h164.8c16 32 36.8 61.6 61.6 86.4h-226.4c-26.4 0-48 21.6-48 48s21.6 48 48 48h264.8c21.6 0 40-14.4 46.4-34.4 44 22.4 94.4 35.2 147.2 35.2 16 0 31.2-0.8 46.4-3.2v136c0 32-12.8 62.4-35.2 84.8l-212.8 211.2c-22.4 22.4-52.8 35.2-84 35.2h-310.4c-58.4 0-106.4-48-106.4-106.4v-715.2c0-59.2 48-106.4 106.4-106.4h297.6c-19.2 41.6-29.6 87.2-29.6 136 0 16.8 1.6 33.6 4 49.6h-134.4c-26.4 0-48 21.6-48 48s21.6 47.2 48 47.2zM468 886.4l254.4-254.4h-254.4v254.4zM793.6 395.2v0c0 0 0 0 0 0-7.2 1.6-15.2 2.4-22.4 3.2-0.8 0-0.8 0-1.6 0-3.2 0-6.4 0.8-10.4 0.8s-8 0-12 0c-4 0-8.8 0-12.8 0-1.6 0-2.4 0-4 0-3.2 0-5.6-0.8-8.8-0.8-1.6 0-3.2 0-4.8-0.8-2.4 0-5.6-0.8-8-0.8-1.6 0-3.2-0.8-4.8-0.8-2.4-0.8-5.6-0.8-8-1.6-1.6 0-3.2-0.8-4-0.8-3.2-0.8-5.6-1.6-8.8-2.4-0.8 0-2.4-0.8-3.2-0.8-4-0.8-7.2-2.4-11.2-3.2 0 0-0.8 0-0.8 0-8-3.2-16-6.4-23.2-9.6-0.8 0-0.8-0.8-1.6-0.8-3.2-1.6-6.4-3.2-9.6-4.8-0.8 0-0.8-0.8-1.6-0.8-3.2-1.6-6.4-4-8.8-5.6-0.8 0-0.8-0.8-1.6-0.8-3.2-2.4-6.4-4-9.6-6.4 0 0-0.8 0-0.8-0.8-51.2-39.2-87.2-97.6-94.4-164 0 0 0-0.8 0-0.8 0-3.2-0.8-7.2-0.8-10.4 0-0.8 0-0.8 0-1.6 0-4 0-8 0-12.8 0-5.6 0-11.2 0.8-16.8 0-0.8 0-2.4 0-3.2 0.8-5.6 0.8-11.2 1.6-16 0-0.8 0-1.6 0-2.4 0.8-4.8 1.6-10.4 3.2-15.2 0-0.8 0-1.6 0.8-1.6 1.6-5.6 3.2-10.4 4.8-16 0-0.8 0.8-1.6 0.8-1.6 4-11.2 8-21.6 13.6-31.2 0 0 0-0.8 0.8-0.8 5.6-10.4 11.2-20 18.4-29.6 0 0 0 0 0 0v0c42.4-58.4 110.4-96 188-96 128 0 232 104 232 232-1.6 110.4-81.6 204-187.2 225.6zM892 182.4l-141.6-132.8c-9.6-8.8-20.8-12.8-32.8-12.8s-24.8 4.8-33.6 14.4l-82.4 82.4c-18.4 18.4-18.4 48.8 0 68 9.6 9.6 21.6 14.4 33.6 14.4s24.8-4.8 33.6-14.4l49.6-49.6 108.8 100.8c9.6 8.8 20.8 12.8 32.8 12.8 12.8 0 25.6-4.8 35.2-15.2 16.8-20 16-50.4-3.2-68z" />
<glyph unicode="&#xe920;" glyph-name="pin" d="M676 200.8l-56 56 252.8 309.6 29.6-29.6c18.4-18.4 48-18.4 66.4 0s18.4 48 0 66.4l-304 304c-18.4 18.4-48 18.4-66.4 0s-18.4-48 0-66.4l32.8-32.8-310.4-251.2-51.2 51.2c-18.4 18.4-48 18.4-66.4 0s-18.4-48 0-66.4l168.8-168.8-296-295.2c-18.4-18.4-18.4-48 0-66.4s48-18.4 66.4 0l295.2 295.2 172-172c18.4-18.4 48-18.4 66.4 0s18.4 48.8 0 66.4z" />
<glyph unicode="&#xe921;" glyph-name="unik3" d="M956 948l50.4-50.4c8-8 12-17.6 12-28.8v-680.8c0-10.4-4-20.8-12-28.8l-212-212c-8-8-17.6-12-28.8-12h-508c-10.4 0-20.8 4-28.8 12l-211.2 212c-8 8-12 17.6-12 28.8v680.8c0 10.4 4 20.8 12 28.8l50.4 50.4c8 8 17.6 12 28.8 12h310.4l-148-244.8h148.8v-432.8h208.8v677.6h310.4c11.2 0 21.6-4 28.8-12z" />
<glyph unicode="&#xe922;" glyph-name="unik2" d="M264.8 587.2l14.4-14.4c2.4-2.4 3.2-4.8 3.2-8v-188.8c0-3.2-0.8-5.6-3.2-8l-59.2-59.2c-2.4-2.4-4.8-3.2-8-3.2h-141.6c-3.2 0-5.6 0.8-8 3.2l-59.2 59.2c-2.4 1.6-3.2 4.8-3.2 8v188.8c0 3.2 0.8 5.6 3.2 8l14.4 14.4c2.4 2.4 4.8 3.2 8 3.2h86.4l-41.6-68h41.6v-120.8h58.4v188.8h86.4c3.2 0 5.6-0.8 8-3.2zM692 590.4h-53.6c-4 0-7.2-1.6-9.6-4l-14.4-14.4c-2.4-2.4-4-5.6-4-9.6v-229.6c0-4 1.6-7.2 4-9.6l14.4-14.4c2.4-2.4 6.4-4 9.6-4h53.6c4 0 7.2 1.6 9.6 4l14.4 14.4c2.4 2.4 4 6.4 4 9.6v229.6c0 4-1.6 7.2-4 9.6l-14.4 14.4c-2.4 2.4-6.4 4-9.6 4zM1022.4 341.6l-80.8 107.2 75.2 116c0.8 1.6 1.6 3.2 1.6 4.8v12.8c0 4.8-4 8.8-8.8 8.8h-88c-3.2 0-5.6-1.6-7.2-4l-56-85.6v64c0 2.4-0.8 4.8-2.4 6.4l-16.8 16.8c-1.6 1.6-4 2.4-6.4 2.4h-57.6c-2.4 0-4.8-0.8-6.4-2.4l-16.8-16.8c-1.6-1.6-2.4-4-2.4-6.4v-233.6c0-2.4 0.8-4.8 2.4-6.4l16.8-16.8c1.6-1.6 4-2.4 6.4-2.4h57.6c2.4 0 4.8 0.8 6.4 2.4l16.8 16.8c1.6 1.6 2.4 4 2.4 6.4v63.2l64.8-85.6c1.6-2.4 4-3.2 7.2-3.2h87.2c4.8 0 8.8 4 8.8 8.8v22.4c-3.2 0.8-3.2 2.4-4 4zM554.4 590.4h-77.6v-112.8l-77.6 112.8h-61.6c-4 0-7.2-1.6-9.6-4l-14.4-14.4c-2.4-2.4-4-6.4-4-9.6v-229.6c0-4 1.6-7.2 4-9.6l14.4-14.4c2.4-2.4 6.4-4 9.6-4h78.4v110.4l77.6-110.4h61.6c4 0 7.2 1.6 9.6 4l14.4 14.4c2.4 2.4 4 6.4 4 9.6v229.6c0 4-1.6 7.2-4 9.6l-14.4 14.4c-3.2 2.4-6.4 4-10.4 4z" />
<glyph unicode="&#xe923;" glyph-name="unik" d="M321.6 273.6c-6.4 0.8-11.2 2.4-13.6 5.6-2.4 2.4-4 7.2-4 12.8v4.8c0 3.2 0 5.6 0.8 7.2s2.4 3.2 4 4.8l4.8 4.8c3.2 3.2 7.2 4.8 10.4 4h15.2l6.4-0.8c1.6 0 3.2-0.8 4.8-2.4l8.8-5.6-5.6-10.4-10.4 4.8-4.8 0.8h-12c-1.6 0-2.4 0-3.2-0.8l-4-4c-0.8-0.8-0.8-1.6-0.8-2.4v-4.8c0-4 1.6-5.6 5.6-5.6l19.2-2.4c7.2-0.8 11.2-2.4 14.4-4.8s4-7.2 4-13.6v-4.8c0-3.2 0-5.6-0.8-7.2s-1.6-3.2-4-4.8l-4.8-4.8c-3.2-3.2-6.4-4.8-10.4-4h-17.6l-6.4 0.8c-1.6 0-3.2 0.8-4.8 2.4l-9.6 4.8 5.6 10.4 10.4-4c1.6-0.8 3.2-0.8 4.8-0.8h14.4c1.6 0 2.4 0 3.2 0.8l4 4c0.8 0.8 0.8 1.6 0.8 2.4v4c0 3.2-1.6 5.6-5.6 5.6v0 0l-19.2 3.2zM395.2 265.6l-19.2 26.4c-3.2 3.2-4.8 8-4.8 13.6v11.2h12.8l0.8-11.2c0-2.4 0.8-4.8 2.4-6.4l15.2-20.8 14.4 20.8c0.8 1.6 1.6 3.2 1.6 6.4l0.8 11.2h12.8v-10.4c0-3.2 0-5.6-0.8-7.2-0.8-2.4-2.4-4.8-4-7.2l-18.4-25.6v-24.8h-13.6v24zM460.8 273.6c-6.4 0.8-11.2 2.4-13.6 5.6-2.4 2.4-4 7.2-4 12.8v4.8c0 3.2 0 5.6 0.8 7.2s2.4 3.2 4 4.8l4.8 4.8c3.2 3.2 7.2 4.8 10.4 4h15.2l6.4-0.8c1.6 0 3.2-0.8 4.8-2.4l8.8-5.6-5.6-10.4-10.4 4.8-4.8 0.8h-12c-1.6 0-2.4 0-3.2-0.8l-4-4c-0.8-0.8-0.8-1.6-0.8-2.4v-4.8c0-4 1.6-5.6 5.6-5.6l19.2-2.4c7.2-0.8 11.2-2.4 14.4-4.8s4-7.2 4-13.6v-4.8c0-3.2 0-5.6-0.8-7.2s-1.6-3.2-4-4.8l-4.8-4.8c-3.2-3.2-7.2-4-11.2-4h-17.6l-6.4 0.8c-1.6 0-3.2 0.8-4.8 2.4l-8.8 4.8 5.6 10.4 10.4-4c1.6-0.8 3.2-0.8 4.8-0.8h14.4c1.6 0 2.4 0 3.2 0.8l4 4c0.8 0.8 0.8 1.6 0.8 2.4v4c0 3.2-1.6 5.6-5.6 5.6v0 0l-19.2 3.2zM545.6 240.8h-13.6v63.2h-23.2v12h60v-12h-23.2v-63.2zM583.2 240.8c-2.4 0-4 0.8-4 4v67.2c0 2.4 0.8 4 4 4h47.2v-12h-37.6v-19.2h31.2v-12h-31.2v-19.2h38.4v-12h-48zM720.8 240.8h-13.6v56l-18.4-28.8c-0.8-0.8-1.6-1.6-2.4-1.6h-6.4c-0.8 0-1.6 0-2.4 1.6l-18.4 28.8v-56h-12.8v73.6c0 1.6 0.8 1.6 1.6 2.4h10.4c1.6 0 3.2-0.8 4-2.4l20.8-33.6 20.8 33.6c0.8 1.6 2.4 2.4 4 2.4h10.4c1.6 0 1.6-0.8 1.6-2.4v0 0-73.6zM264.8 652.8l14.4-14.4c2.4-2.4 3.2-4.8 3.2-8v-189.6c0-3.2-0.8-5.6-3.2-8l-59.2-59.2c-2.4-2.4-4.8-3.2-8-3.2h-141.6c-3.2 0-5.6 0.8-8 3.2l-59.2 59.2c-2.4 2.4-3.2 4.8-3.2 8v189.6c0 3.2 0.8 5.6 3.2 8l14.4 14.4c2.4 2.4 4.8 3.2 8 3.2h86.4l-41.6-68h41.6v-120.8h58.4v188.8h86.4c3.2 0 5.6-1.6 8-3.2zM692 656h-53.6c-4 0-7.2-1.6-9.6-4l-14.4-14.4c-2.4-2.4-4-5.6-4-9.6v-229.6c0-4 1.6-7.2 4-9.6l14.4-14.4c2.4-2.4 6.4-4 9.6-4h53.6c4 0 7.2 1.6 9.6 4l14.4 14.4c2.4 2.4 4 6.4 4 9.6v229.6c0 4-1.6 7.2-4 9.6l-14.4 14.4c-2.4 2.4-6.4 4-9.6 4zM1022.4 407.2l-80.8 107.2 75.2 116c0.8 1.6 1.6 3.2 1.6 4.8v12.8c0 4.8-4 8.8-8.8 8.8h-88c-3.2 0-5.6-1.6-7.2-4l-56-85.6v64c0 2.4-0.8 4.8-2.4 6.4l-16.8 16.8c-1.6 1.6-4 2.4-6.4 2.4h-57.6c-2.4 0-4.8-0.8-6.4-2.4l-16.8-16.8c-1.6-1.6-2.4-4-2.4-6.4v-233.6c0-2.4 0.8-4.8 2.4-6.4l16.8-16.8c1.6-1.6 4-2.4 6.4-2.4h57.6c2.4 0 4.8 0.8 6.4 2.4l16.8 16.8c1.6 1.6 2.4 4 2.4 6.4v63.2l64.8-85.6c1.6-2.4 4-3.2 7.2-3.2h87.2c4.8 0 8.8 4 8.8 8.8v22.4c-3.2 0.8-3.2 2.4-4 4zM554.4 656h-77.6v-112.8l-77.6 112.8h-61.6c-4 0-7.2-1.6-9.6-4l-14.4-14.4c-2.4-2.4-4-6.4-4-9.6v-229.6c0-4 1.6-7.2 4-9.6l14.4-14.4c2.4-2.4 6.4-4 9.6-4h78.4v110.4l77.6-110.4h61.6c4 0 7.2 1.6 9.6 4l14.4 14.4c2.4 2.4 4 6.4 4 9.6v229.6c0 4-1.6 7.2-4 9.6l-14.4 14.4c-3.2 2.4-6.4 4-10.4 4z" />
<glyph unicode="&#xe924;" glyph-name="globe" d="M512 960c-282.4 0-512-229.6-512-512s229.6-512 512-512 512 229.6 512 512-229.6 512-512 512zM888.8 659.2h-180c-10.4 72.8-26.4 139.2-48.8 194.4 97.6-35.2 178.4-104.8 228.8-194.4zM464.8 877.6c16 1.6 31.2 2.4 47.2 2.4s31.2-0.8 47.2-2.4c25.6-42.4 52-116 68-218.4h-230.4c16 102.4 42.4 176 68 218.4zM80 448c0 45.6 7.2 89.6 20 130.4h205.6c-3.2-42.4-4.8-86.4-4.8-130.4s1.6-88 5.6-130.4h-206.4c-12.8 40.8-20 84.8-20 130.4zM135.2 236.8h180c10.4-72.8 26.4-139.2 48.8-194.4-97.6 35.2-178.4 104.8-228.8 194.4zM315.2 659.2h-180c50.4 89.6 131.2 159.2 228.8 194.4-21.6-55.2-37.6-121.6-48.8-194.4zM559.2 18.4c-15.2-1.6-31.2-2.4-47.2-2.4s-31.2 0.8-47.2 2.4c-25.6 42.4-52 116-68 218.4h229.6c-15.2-102.4-41.6-176-67.2-218.4zM636.8 317.6h-249.6c-3.2 40-5.6 84-5.6 130.4 0 47.2 2.4 90.4 5.6 130.4h249.6c3.2-40 5.6-84 5.6-130.4 0-47.2-1.6-90.4-5.6-130.4zM660 42.4c21.6 55.2 37.6 121.6 48.8 194.4h180c-50.4-89.6-131.2-159.2-228.8-194.4zM717.6 317.6c4 43.2 5.6 86.4 5.6 130.4s-1.6 88-5.6 130.4h205.6c12.8-40.8 20-84.8 20-130.4s-7.2-89.6-20-130.4h-205.6z" />
<glyph unicode="&#xe925;" glyph-name="left" d="M290.4 426.4l384.8-222.4c16.8-9.6 36.8 2.4 36.8 21.6v444.8c0 19.2-20.8 31.2-36.8 21.6l-384.8-222.4c-16-9.6-16-33.6 0-43.2z" />
<glyph unicode="&#xe926;" glyph-name="right" d="M732.8 426.4l-384-222.4c-16.8-9.6-37.6 2.4-37.6 21.6v444.8c0 19.2 20.8 31.2 37.6 21.6l384.8-222.4c16-9.6 16-33.6-0.8-43.2z" />
<glyph unicode="&#xe927;" glyph-name="down" d="M490.4 227.2l-222.4 384c-9.6 16.8 2.4 37.6 21.6 37.6h444.8c19.2 0 31.2-20.8 21.6-37.6l-222.4-384c-9.6-16.8-33.6-16.8-43.2 0z" />
<glyph unicode="&#xe928;" glyph-name="up" d="M490.4 669.6l-222.4-385.6c-9.6-16.8 2.4-36.8 21.6-36.8h445.6c19.2 0 31.2 20.8 21.6 36.8l-223.2 385.6c-9.6 16-33.6 16-43.2 0z" />
<glyph unicode="&#xe929;" glyph-name="ellipsis" d="M656 448c0-79.529-64.471-144-144-144s-144 64.471-144 144c0 79.529 64.471 144 144 144s144-64.471 144-144zM288 448c0-79.529-64.471-144-144-144s-144 64.471-144 144c0 79.529 64.471 144 144 144s144-64.471 144-144zM1024 448c0-79.529-64.471-144-144-144s-144 64.471-144 144c0 79.529 64.471 144 144 144s144-64.471 144-144z" />
<glyph unicode="&#xe92a;" glyph-name="edit" d="M830.4 960c-13.6 0-27.2-5.6-38.4-16l-91.2-92 215.2-215.2 92 92c20.8 20.8 20.8 55.2 0 76l-139.2 139.2c-10.4 10.4-24 16-38.4 16zM620 771.2l-620-620v-215.2h215.2l620 620-215.2 215.2z" />
</font>
</defs>
</svg>
