<?xml version="1.0" encoding="utf-8"?>
<!-- Generator: Adobe Illustrator 23.0.6, SVG Export Plug-In . SVG Version: 6.00 Build 0)  -->
<svg version="1.1" id="Layer_1" xmlns="http://www.w3.org/2000/svg" xmlns:xlink="http://www.w3.org/1999/xlink" x="0px" y="0px"
	 viewBox="0 0 12.01 12.01" style="enable-background:new 0 0 12.01 12.01;" xml:space="preserve">
<style type="text/css">
	.st0{fill:#231F20;}
	.st1{fill:#FFFFFF;}
</style>
<path class="st0" d="M38,16.96"/>
<g>
	<path class="st1" d="M5.37,7.75v2.87c0,0.11,0.09,0.2,0.2,0.2h4.42c0.11,0,0.2-0.09,0.2-0.2V1.39c0-0.11-0.09-0.2-0.2-0.2H5.57
		c-0.11,0-0.2,0.09-0.2,0.2v2.78h-1.2V1.39C4.18,0.63,4.8,0,5.57,0h4.42c0.77,0,1.39,0.63,1.39,1.39v9.22
		c0,0.77-0.63,1.39-1.39,1.39H5.57c-0.77,0-1.39-0.63-1.39-1.39V7.75H5.37z"/>
	<polygon class="st1" points="0.63,5.96 3.02,3.55 3.02,5.34 8.43,5.34 8.43,6.56 3.02,6.56 3.02,8.38 	"/>
</g>
</svg>
