<?xml version="1.0" encoding="utf-8"?>
<!-- Generator: Adobe Illustrator 23.0.6, SVG Export Plug-In . SVG Version: 6.00 Build 0)  -->
<svg version="1.1" id="Layer_1" xmlns="http://www.w3.org/2000/svg" xmlns:xlink="http://www.w3.org/1999/xlink" x="0px" y="0px"
	 viewBox="0 0 12 12" style="enable-background:new 0 0 12 12;" xml:space="preserve">
<style type="text/css">
	.st0{fill:#231F20;}
	.st1{fill:#33058D;}
</style>
<path class="st0" d="M38,17"/>
<g>
	<path class="st1" d="M6.8,12v-0.9h1.6l0,0.8l0,0.2L6.8,12z M6,12H4.4v-0.9H6V12z M3.6,12c-1.6,0-3-1.1-3.4-2.7L1,9.1
		c0.3,1.2,1.4,2,2.5,2L3.6,12z M9.4,11.9L9.1,11c1.1-0.3,1.9-1.4,1.9-2.6l0.9,0v0C12,10,10.9,11.4,9.4,11.9z M0,8.4V6.8h0.9v1.6
		L0,8.4z M12,7.6h-0.9V6H12V7.6z M0.9,6H0V4.4h0.9V6z M12,5.2h-0.9V3.6l0.9,0V5.2z M0.9,3.6L0,3.6c0-1.6,1.1-3,2.6-3.4L2.9,1
		C1.7,1.3,0.9,2.4,0.9,3.6z M11,2.9c-0.3-1.1-1.4-2-2.6-2l0-0.9c1.6,0,3,1.1,3.4,2.6L11,2.9z M7.6,0.9H6V0h1.6V0.9z M5.2,0.9H3.6
		l0-0.9h1.6V0.9z"/>
</g>
</svg>
