<?xml version="1.0" encoding="utf-8"?>
<!-- Generator: Adobe Illustrator 23.0.6, SVG Export Plug-In . SVG Version: 6.00 Build 0)  -->
<svg version="1.1" id="Layer_1" xmlns="http://www.w3.org/2000/svg" xmlns:xlink="http://www.w3.org/1999/xlink" x="0px" y="0px"
	 viewBox="0 0 12.01 12.01" style="enable-background:new 0 0 12.01 12.01;" xml:space="preserve">
<style type="text/css">
	.st0{fill:#FFFFFF;}
</style>
<path class="st0" d="M11.72,10.3L8.73,7.32C8.7,7.29,8.67,7.28,8.64,7.25C9.12,6.52,9.4,5.64,9.4,4.7C9.4,2.1,7.3,0,4.7,0
	C2.1,0,0,2.1,0,4.7c0,2.6,2.1,4.7,4.7,4.7c0.94,0,1.82-0.28,2.55-0.76C7.28,8.67,7.29,8.7,7.32,8.73l2.99,2.99
	c0.2,0.2,0.45,0.29,0.71,0.29s0.51-0.1,0.71-0.29C12.11,11.33,12.11,10.69,11.72,10.3z M1,4.7C1,2.66,2.66,1,4.7,1
	c2.04,0,3.7,1.66,3.7,3.7c0,2.04-1.66,3.7-3.7,3.7C2.66,8.4,1,6.74,1,4.7z"/>
</svg>
