<?xml version="1.0" encoding="utf-8"?>
<!-- Generator: Adobe Illustrator 23.1.0, SVG Export Plug-In . SVG Version: 6.00 Build 0)  -->
<svg version="1.1" id="Layer_1" xmlns="http://www.w3.org/2000/svg" xmlns:xlink="http://www.w3.org/1999/xlink" x="0px" y="0px"
	 viewBox="0 0 12 12" style="enable-background:new 0 0 12 12;" xml:space="preserve">
<style type="text/css">
	.st0{fill:#A2A2A2;}
</style>
<path class="st0" d="M8.4,7.8L7.2,6.6c0,0,0,0,0,0c0.2-0.3,0.3-0.7,0.3-1.1c0-1.1-0.9-2-2-2s-2,0.9-2,2s0.9,2,2,2
	c0.4,0,0.8-0.1,1.1-0.3c0,0,0,0,0,0l1.3,1.3C7.9,8.5,8,8.5,8.1,8.5s0.2,0,0.3-0.1C8.6,8.3,8.6,8,8.4,7.8z M3.9,5.5
	c0-0.9,0.7-1.6,1.6-1.6S7,4.6,7,5.5S6.3,7,5.5,7S3.9,6.3,3.9,5.5z"/>
</svg>
